<?xml version="1.0" encoding="UTF-8" standalone="no"?>
<svg
   width="40"
   height="40"
   viewBox="0 0 10.583333 10.583333"
   version="1.1"
   id="svg8"
   inkscape:version="1.1.2 (b8e25be833, 2022-02-05)"
   sodipodi:docname="favicon.svg"
   xmlns:inkscape="http://www.inkscape.org/namespaces/inkscape"
   xmlns:sodipodi="http://sodipodi.sourceforge.net/DTD/sodipodi-0.dtd"
   xmlns="http://www.w3.org/2000/svg"
   xmlns:svg="http://www.w3.org/2000/svg"
   xmlns:rdf="http://www.w3.org/1999/02/22-rdf-syntax-ns#"
   xmlns:cc="http://creativecommons.org/ns#"
   xmlns:dc="http://purl.org/dc/elements/1.1/">
  <defs
     id="defs2" />
  <sodipodi:namedview
     id="base"
     pagecolor="#ffffff"
     bordercolor="#666666"
     borderopacity="1.0"
     inkscape:pageopacity="0.0"
     inkscape:pageshadow="2"
     inkscape:zoom="3.9999998"
     inkscape:cx="26.250001"
     inkscape:cy="34.375001"
     inkscape:document-units="cm"
     inkscape:current-layer="g13052"
     inkscape:document-rotation="0"
     showgrid="false"
     units="px"
     inkscape:pagecheckerboard="true"
     inkscape:showpageshadow="false"
     inkscape:window-width="1920"
     inkscape:window-height="1017"
     inkscape:window-x="-8"
     inkscape:window-y="-8"
     inkscape:window-maximized="1" />
  <metadata
     id="metadata5">
    <rdf:RDF>
      <cc:Work
         rdf:about="">
        <dc:format>image/svg+xml</dc:format>
        <dc:type
           rdf:resource="http://purl.org/dc/dcmitype/StillImage" />
      </cc:Work>
    </rdf:RDF>
  </metadata>
  <g
     inkscape:label="Layer 1"
     inkscape:groupmode="layer"
     id="layer1">
    <g
       id="g13052"
       transform="matrix(1,0,0,0.99905149,-20.830441,-4.2520241)"
       style="stroke-width:1.00047">
      <path
         id="rect15840"
         style="opacity:1;fill:#9d50dc;fill-rule:evenodd;stroke-width:0.1;stop-color:#000000;fill-opacity:1"
         d="M 20.044922 0 C 17.274928 -0.0062879704 15.039485 2.2170095 15.033203 4.984375 L 15.011719 15 L 5.0039062 15 C 2.2312788 15 0 17.23 0 20 C 0 22.770001 2.2312788 25 5.0039062 25 L 14.988281 25 L 14.966797 34.994141 C 14.960515 37.761507 17.185085 39.993712 19.955078 40 C 22.725072 40.006288 24.960515 37.782991 24.966797 35.015625 L 24.988281 25 L 34.996094 25 C 37.768725 25 40 22.770001 40 20 C 40 17.23 37.768725 15 34.996094 15 L 25.011719 15 L 25.033203 5.0058594 C 25.039485 2.2384939 22.814915 0.0062879704 20.044922 0 z "
         transform="matrix(0.26458333,0,0,0.26483452,20.830441,4.256061)" />
    </g>
  </g>
</svg>
