<?xml version="1.0" encoding="UTF-8" standalone="no"?>
<svg
   width="200"
   height="200"
   viewBox="0 0 52.916667 52.916666"
   version="1.1"
   id="svg8"
   inkscape:version="1.1.2 (b8e25be833, 2022-02-05)"
   sodipodi:docname="numeros.svg"
   xmlns:inkscape="http://www.inkscape.org/namespaces/inkscape"
   xmlns:sodipodi="http://sodipodi.sourceforge.net/DTD/sodipodi-0.dtd"
   xmlns="http://www.w3.org/2000/svg"
   xmlns:svg="http://www.w3.org/2000/svg"
   xmlns:rdf="http://www.w3.org/1999/02/22-rdf-syntax-ns#"
   xmlns:cc="http://creativecommons.org/ns#"
   xmlns:dc="http://purl.org/dc/elements/1.1/">
  <defs
     id="defs2" />
  <sodipodi:namedview
     id="base"
     pagecolor="#ffffff"
     bordercolor="#666666"
     borderopacity="1.0"
     inkscape:pageopacity="0.0"
     inkscape:pageshadow="2"
     inkscape:zoom="2"
     inkscape:cx="25.5"
     inkscape:cy="81.75"
     inkscape:document-units="cm"
     inkscape:current-layer="layer1"
     inkscape:document-rotation="0"
     showgrid="false"
     units="px"
     inkscape:pagecheckerboard="true"
     inkscape:showpageshadow="false"
     inkscape:window-width="1920"
     inkscape:window-height="1017"
     inkscape:window-x="-8"
     inkscape:window-y="-8"
     inkscape:window-maximized="1" />
  <metadata
     id="metadata5">
    <rdf:RDF>
      <cc:Work
         rdf:about="">
        <dc:format>image/svg+xml</dc:format>
        <dc:type
           rdf:resource="http://purl.org/dc/dcmitype/StillImage" />
      </cc:Work>
    </rdf:RDF>
  </metadata>
  <g
     inkscape:label="Layer 1"
     inkscape:groupmode="layer"
     id="layer1">
    <g
       id="g13246"
       style="opacity:0.04;stroke-width:0.925643"
       transform="matrix(1.1034031,0,0,1.0577405,-1.3479784,-0.42954249)">
      <g
         id="g5794"
         transform="translate(-3.175,34.925)"
         style="stroke-width:0.925643">
        <g
           id="g13052"
           transform="matrix(0.5,0,0,0.49952577,9.0916796,0.97210179)"
           style="stroke-width:1.85216">
          <path
             id="rect5316"
             style="opacity:1;fill-rule:evenodd;stroke-width:0.0490051;stop-color:#000000"
             d="m 18.183359,8.5644808 h 15.875 v 2.6458332 h -15.875 z" />
          <path
             id="rect5659"
             style="opacity:1;fill-rule:evenodd;stroke-width:0.0490051;stop-color:#000000"
             transform="rotate(89.667854)"
             d="M 2.1011536,-27.386019 H 17.976154 v 2.645834 H 2.1011536 Z" />
        </g>
      </g>
      <path
         id="rect5661"
         style="opacity:1;fill-rule:evenodd;stroke-width:0.0244909;stop-color:#000000"
         d="m 25.327106,4.9926052 h 7.9375 v 1.3229166 h -7.9375 z" />
      <g
         id="g5669"
         transform="matrix(0.58929679,0,0,0.58708099,0.81281691,-5.356186)"
         style="stroke-width:1.57372">
        <path
           id="rect5663"
           style="opacity:1;fill-rule:evenodd;stroke-width:0.0416379;stop-color:#000000"
           transform="rotate(42.64555)"
           d="m 13.790955,8.0237608 h 15.875 v 2.6458332 h -15.875 z" />
        <path
           id="rect5665"
           style="opacity:1;fill-rule:evenodd;stroke-width:0.0416379;stop-color:#000000"
           transform="rotate(132.3134)"
           d="M 1.5349799,-22.996824 H 17.40998 v 2.645833 H 1.5349799 Z" />
      </g>
      <g
         id="g5785"
         transform="matrix(0.5,0,0,0.46875001,-0.0364458,8.053542)"
         style="stroke-width:1.912">
        <path
           id="rect5671"
           style="opacity:1;fill-rule:evenodd;stroke-width:0.0505882;stop-color:#000000"
           d="m 17.389608,22.256668 h 15.875 v 2.645833 h -15.875 z" />
        <path
           id="rect5673"
           style="opacity:1;fill-rule:evenodd;stroke-width:0.0505882;stop-color:#000000"
           d="m 17.389608,28.077501 h 15.875 v 2.645834 h -15.875 z" />
      </g>
      <g
         id="g5790"
         transform="matrix(0.5,0,0,0.39319028,22.853386,16.564705)"
         style="stroke-width:2.08765">
        <path
           id="rect5675"
           style="opacity:1;fill-rule:evenodd;stroke-width:0.0552356;stop-color:#000000"
           d="m 33.800522,33.35828 h 15.875 v 2.645833 h -15.875 z" />
        <path
           id="path5699"
           style="opacity:1;fill-rule:evenodd;stroke-width:0.0552356;stop-color:#000000"
           d="m 43.732294,29.946329 a 1.9942722,1.9942722 0 0 1 -1.994272,1.994272 1.9942722,1.9942722 0 0 1 -1.994272,-1.994272 1.9942722,1.9942722 0 0 1 1.994272,-1.994272 1.9942722,1.9942722 0 0 1 1.994272,1.994272 z" />
        <path
           id="circle5781"
           style="opacity:1;fill-rule:evenodd;stroke-width:0.0552356;stop-color:#000000"
           d="m 43.732294,39.416069 a 1.9942722,1.9942722 0 0 1 -1.994272,1.994272 1.9942722,1.9942722 0 0 1 -1.994272,-1.994272 1.9942722,1.9942722 0 0 1 1.994272,-1.994272 1.9942722,1.9942722 0 0 1 1.994272,1.994272 z" />
      </g>
      <g
         aria-label="1"
         id="text6546"
         style="font-style:italic;font-weight:bold;font-size:8.46667px;line-height:1.25;-inkscape-font-specification:'sans-serif Bold Italic';text-align:center;text-anchor:middle;stroke-width:0.244909">
        <path
           d="m 5.4684053,49.477081 0.745067,-3.429001 q 0.042333,-0.211667 0.1354667,-0.5588 0.093133,-0.3556 0.1778,-0.626534 -0.0762,0.05927 -0.2370667,0.186267 -0.1608667,0.118533 -0.2963335,0.2032 l -0.8043336,0.508 -0.5503336,-0.889 2.336801,-1.439334 h 1.0329337 l -1.2784672,6.045202 z"
           id="path13064"
           style="stroke-width:0.244909" />
      </g>
      <g
         aria-label="2"
         id="text6880"
         style="font-style:italic;font-weight:bold;font-size:8.46667px;line-height:1.25;-inkscape-font-specification:'sans-serif Bold Italic';text-align:center;text-anchor:middle;stroke-width:0.244909">
        <path
           d="m 17.969439,30.823956 0.1778,-0.880534 1.972734,-1.752601 q 0.491067,-0.4318 0.778934,-0.745067 0.287866,-0.321733 0.4064,-0.567267 0.127,-0.254 0.127,-0.4826 0,-0.313267 -0.169334,-0.474133 -0.169333,-0.160867 -0.4572,-0.160867 -0.3048,0 -0.592667,0.1524 -0.287866,0.1524 -0.677333,0.474133 l -0.601134,-0.8382 q 0.423334,-0.364067 0.922867,-0.6096 0.499534,-0.245534 1.151467,-0.245534 0.592667,0 0.965201,0.211667 0.381,0.211667 0.5588,0.550334 0.1778,0.338667 0.1778,0.7112 0,0.541867 -0.237067,0.982134 -0.2286,0.4318 -0.635,0.829733 -0.397934,0.389467 -0.905934,0.812801 l -1.109133,0.9144 v 0.04233 h 2.345267 l -0.220133,1.075268 z"
           id="path13067"
           style="stroke-width:0.244909" />
      </g>
      <g
         aria-label="3"
         id="text8258"
         style="font-style:italic;font-weight:bold;font-size:8.46667px;line-height:1.25;-inkscape-font-specification:'sans-serif Bold Italic';text-align:center;text-anchor:middle;stroke-width:0.244909">
        <path
           d="m 31.738354,22.574251 q -0.474133,0 -0.889,-0.08467 -0.4064,-0.08467 -0.7112,-0.245533 V 21.14338 q 0.347133,0.203201 0.753533,0.313267 0.4064,0.1016 0.787401,0.1016 0.601133,0 0.973667,-0.245533 0.381,-0.245534 0.381,-0.745067 0,-0.3048 -0.2286,-0.508 -0.220134,-0.2032 -0.838201,-0.2032 h -0.567267 l 0.186267,-0.914401 h 0.3048 q 0.3556,0 0.694267,-0.09313 0.347134,-0.09313 0.567267,-0.296334 0.220134,-0.211666 0.220134,-0.575733 0,-0.245534 -0.160867,-0.414867 -0.160867,-0.169333 -0.516467,-0.169333 -0.372533,0 -0.677334,0.135466 -0.296333,0.135467 -0.508,0.2794 l -0.524933,-0.846667 q 0.4064,-0.262466 0.855133,-0.4318 0.4572,-0.169333 1.126067,-0.169333 0.838201,0 1.253068,0.397933 0.423333,0.389467 0.423333,0.982134 0,0.626534 -0.381,1.066801 -0.381,0.4318 -1.0922,0.5588 v 0.03387 q 0.4572,0.09313 0.778933,0.397934 0.321734,0.296333 0.321734,0.872067 0,0.4826 -0.262467,0.922867 -0.262467,0.4318 -0.821267,0.7112 -0.5588,0.270934 -1.447801,0.270934 z"
           id="path13070"
           style="stroke-width:0.244909" />
      </g>
      <g
         aria-label="4"
         id="text9384"
         style="font-style:italic;font-weight:bold;font-size:8.46667px;line-height:1.25;-inkscape-font-specification:'sans-serif Bold Italic';text-align:center;text-anchor:middle;stroke-width:0.244909">
        <path
           d="m 31.756348,36.380207 0.262466,-1.253067 h -2.438401 l 0.194734,-0.9652 3.183468,-3.826935 h 1.286934 l -0.804334,3.801535 h 0.702734 l -0.211667,0.9906 h -0.702734 l -0.262467,1.253067 z M 30.943547,34.13654 h 1.286934 l 0.237067,-1.024468 q 0.04233,-0.220133 0.110067,-0.474133 0.06773,-0.254 0.127,-0.465667 0.05927,-0.220133 0.1016,-0.321733 h -0.04233 q -0.09313,0.160866 -0.237066,0.364066 -0.143934,0.2032 -0.287867,0.381001 z"
           id="path13073"
           style="stroke-width:0.244909" />
      </g>
      <g
         aria-label="5"
         id="text9882"
         style="font-style:italic;font-weight:bold;font-size:8.46667px;line-height:1.25;-inkscape-font-specification:'sans-serif Bold Italic';text-align:center;text-anchor:middle;stroke-width:0.244909">
        <path
           d="m 43.670004,7.493 q -0.491067,0 -0.905933,-0.093133 -0.406401,-0.1016 -0.668867,-0.2455334 V 6.0451994 q 0.3048,0.1693334 0.677333,0.2878668 0.372534,0.1185334 0.778934,0.1185334 0.508,0 0.804334,-0.1608667 0.296333,-0.1693334 0.423333,-0.4148669 0.127,-0.2540001 0.127,-0.5164668 0,-0.3217335 -0.2032,-0.5503336 -0.194733,-0.2286001 -0.719667,-0.2286001 -0.254,0 -0.491067,0.0508 -0.237067,0.042333 -0.389467,0.084667 l -0.4318,-0.3217334 0.855134,-3.0310679 h 3.124201 l -0.2286,1.0837338 h -2.023534 l -0.364067,1.2107338 q 0.1016,-0.016933 0.2286,-0.033867 0.135467,-0.0254 0.296334,-0.0254 0.4572,0 0.829733,0.1778001 0.372534,0.1693334 0.584201,0.5249335 0.220133,0.3556001 0.220133,0.9059337 0,0.6265336 -0.270933,1.1514671 Q 45.659672,6.8749331 45.100872,7.1881999 44.542071,7.493 43.670004,7.493 Z"
           id="path13076"
           style="stroke-width:0.244909" />
      </g>
      <g
         aria-label="6"
         id="text10216"
         style="font-style:italic;font-weight:bold;font-size:8.46667px;line-height:1.25;-inkscape-font-specification:'sans-serif Bold Italic';text-align:center;text-anchor:middle;stroke-width:0.244909">
        <path
           d="m 44.118738,18.208625 q -0.880534,0 -1.329267,-0.524933 -0.440267,-0.524934 -0.440267,-1.498601 0,-0.651933 0.160866,-1.303867 0.160867,-0.651934 0.457201,-1.210734 0.3048,-0.5588 0.719667,-0.9398 0.414866,-0.372534 0.931333,-0.5588 0.516467,-0.186267 1.210734,-0.186267 0.262467,0 0.508,0.03387 0.254,0.03387 0.414867,0.0762 l -0.211667,1.016 q -0.1524,-0.04233 -0.372533,-0.06773 -0.211667,-0.03387 -0.414867,-0.03387 -0.846667,0 -1.337734,0.474133 -0.491067,0.474134 -0.745067,1.397001 h 0.03387 q 0.211667,-0.296333 0.524934,-0.491067 0.313266,-0.194733 0.762,-0.194733 0.618067,0 0.982134,0.389467 0.372533,0.389466 0.372533,1.143 0,0.3556 -0.110067,0.7874 -0.1016,0.423334 -0.3556,0.812801 -0.254,0.381 -0.6858,0.635 -0.4318,0.245533 -1.075267,0.245533 z m 0.05927,-1.024467 q 0.313267,0 0.516467,-0.2032 0.2032,-0.2032 0.3048,-0.508 0.101601,-0.313267 0.101601,-0.651934 0,-0.287866 -0.143934,-0.465667 -0.135467,-0.1778 -0.414867,-0.1778 -0.237066,0 -0.440267,0.127 -0.2032,0.127001 -0.338666,0.313267 -0.127,0.186267 -0.160867,0.381 -0.01693,0.09313 -0.0254,0.194734 -0.0085,0.09313 -0.0085,0.186267 0,0.347133 0.1524,0.575733 0.160867,0.2286 0.4572,0.2286 z"
           id="path13079"
           style="stroke-width:0.244909" />
      </g>
      <g
         aria-label="7"
         id="text10814"
         style="font-style:italic;font-weight:bold;font-size:8.46667px;line-height:1.25;-inkscape-font-specification:'sans-serif Bold Italic';text-align:center;text-anchor:middle;stroke-width:0.244909">
        <path
           d="m 31.194371,49.477081 3.048001,-4.969935 h -2.599267 l 0.2286,-1.075267 h 4.030135 l -0.169334,0.804334 -3.107268,5.240868 z"
           id="path13082"
           style="stroke-width:0.244909" />
      </g>
      <g
         aria-label="8"
         id="text11280"
         style="font-style:italic;font-weight:bold;font-size:8.46667px;line-height:1.25;-inkscape-font-specification:'sans-serif Bold Italic';text-align:center;text-anchor:middle;stroke-width:0.244909">
        <path
           d="m 45.697773,47.1805 q -0.948267,0 -1.422401,-0.440267 -0.474133,-0.440267 -0.474133,-1.092201 0,-0.651933 0.372533,-1.075267 0.372534,-0.4318 1.0668,-0.6858 -0.254,-0.194734 -0.474133,-0.499534 -0.211667,-0.313266 -0.211667,-0.7366 0,-0.465667 0.2286,-0.846667 0.2286,-0.389467 0.668867,-0.618067 0.448734,-0.2286 1.100667,-0.2286 0.558801,0 0.931334,0.194733 0.372534,0.186267 0.5588,0.499534 0.186267,0.313267 0.186267,0.6858 0,0.440267 -0.186267,0.753534 -0.1778,0.3048 -0.474133,0.516467 -0.287867,0.2032 -0.626534,0.321733 0.220134,0.143934 0.423334,0.347134 0.211666,0.2032 0.338666,0.491067 0.135467,0.2794 0.135467,0.668866 0,0.440267 -0.2286,0.846668 -0.2286,0.397933 -0.702734,0.651933 -0.474133,0.245534 -1.210733,0.245534 z m 0.567267,-3.776135 q 0.3556,-0.135467 0.5588,-0.3556 0.2032,-0.228601 0.2032,-0.558801 0,-0.2794 -0.160867,-0.440267 -0.160867,-0.160866 -0.423333,-0.160866 -0.330201,0 -0.508001,0.2032 -0.1778,0.194733 -0.1778,0.4826 0,0.296333 0.135467,0.499534 0.143933,0.2032 0.372534,0.3302 z m -0.474134,2.836334 q 0.4318,0 0.635,-0.245533 0.2032,-0.245534 0.2032,-0.550334 0,-0.347133 -0.186266,-0.5842 -0.1778,-0.237067 -0.465667,-0.423334 -0.474134,0.186267 -0.711201,0.448734 -0.237066,0.254 -0.237066,0.626534 0,0.3302 0.2032,0.5334 0.211667,0.194733 0.5588,0.194733 z"
           id="path13085"
           style="stroke-width:0.244909" />
      </g>
      <g
         aria-label="9"
         id="text11998"
         style="font-style:italic;font-weight:bold;font-size:8.46667px;line-height:1.25;-inkscape-font-specification:'sans-serif Bold Italic';text-align:center;text-anchor:middle;stroke-width:0.244909">
        <path
           d="m 19.915713,14.636751 q -0.2794,0 -0.550334,-0.04233 -0.270933,-0.04233 -0.440267,-0.09313 V 13.44295 q 0.160867,0.05927 0.406401,0.118534 0.254,0.0508 0.5334,0.0508 0.4572,0 0.778933,-0.1524 0.321734,-0.160867 0.533401,-0.423334 0.211666,-0.262467 0.347133,-0.592667 0.135467,-0.3302 0.220134,-0.668867 h -0.03387 q -0.2032,0.287867 -0.499534,0.474134 -0.296333,0.1778 -0.719667,0.1778 -0.719667,0 -1.0668,-0.4572 -0.347133,-0.457201 -0.347133,-1.151468 0,-0.338666 0.1016,-0.745066 0.110066,-0.4148673 0.364066,-0.7874008 0.254,-0.3810001 0.702734,-0.6265336 0.448734,-0.2455334 1.126067,-0.2455334 0.770467,0 1.236134,0.4741335 0.474133,0.4656669 0.474133,1.5240003 0,0.601134 -0.127,1.244601 -0.127,0.635 -0.389466,1.2192 -0.254001,0.575734 -0.635001,0.973667 -0.3556,0.364067 -0.846667,0.575734 -0.491067,0.211667 -1.1684,0.211667 z m 0.999067,-3.191935 q 0.245533,0 0.4318,-0.127 0.186267,-0.135467 0.3048,-0.3302 0.118534,-0.194734 0.1524,-0.381 0.01693,-0.09313 0.0254,-0.186267 0.0085,-0.1016 0.0085,-0.194733 0,-0.3471339 -0.143933,-0.5672673 -0.143934,-0.2201334 -0.457201,-0.2201334 -0.313266,0 -0.516466,0.2032 -0.194734,0.1947335 -0.296334,0.4910667 -0.1016,0.287867 -0.1016,0.5842 0,0.355601 0.1524,0.541867 0.160867,0.186267 0.440267,0.186267 z"
           id="path13088"
           style="stroke-width:0.244909" />
      </g>
      <g
         aria-label="0"
         id="text12782"
         style="font-style:italic;font-weight:bold;font-size:8.46667px;line-height:1.25;-inkscape-font-specification:'sans-serif Bold Italic';text-align:center;text-anchor:middle;stroke-width:0.244909">
        <path
           d="m 3.8396304,32.09925 q -0.8551336,0 -1.2615338,-0.524933 -0.4064002,-0.524934 -0.4064002,-1.490134 0,-0.829734 0.1693334,-1.583267 0.1693334,-0.762001 0.5080002,-1.346201 0.3386668,-0.592667 0.8382004,-0.931334 0.4995335,-0.347133 1.1514671,-0.347133 0.770467,0 1.2107338,0.465667 0.4402669,0.465667 0.4402669,1.490134 0,0.804333 -0.1524001,1.566334 -0.1524001,0.762 -0.4741335,1.3716 -0.3132668,0.6096 -0.821267,0.973667 -0.4995336,0.3556 -1.2022672,0.3556 z m 0.1016001,-1.032933 q 0.2370667,0 0.4402668,-0.203201 0.2032001,-0.211666 0.3640668,-0.5588 0.1608668,-0.3556 0.2624668,-0.778933 0.1100667,-0.431801 0.1693334,-0.880534 0.059267,-0.4572 0.059267,-0.855134 0,-0.4572 -0.1270001,-0.668867 -0.127,-0.211666 -0.3810001,-0.211666 -0.2540001,0 -0.4656669,0.2286 -0.2032,0.2286 -0.3640668,0.601133 -0.1524,0.364067 -0.2624667,0.795867 -0.1016001,0.423334 -0.1608668,0.846667 -0.0508,0.414867 -0.0508,0.728134 0,0.465667 0.1100667,0.7112 0.1185334,0.245534 0.4063999,0.245534 z"
           id="path13091"
           style="stroke-width:0.244909" />
      </g>
    </g>
  </g>
</svg>
